<svg width="77" height="77" viewBox="0 0 77 77" fill="none" xmlns="http://www.w3.org/2000/svg">
<path d="M25.6667 25.6667L25.6667 22.4584C25.6667 15.3707 31.4123 9.62502 38.5 9.62502V9.62502C45.5876 9.62502 51.3333 15.3707 51.3333 22.4584L51.3333 25.6667" stroke="#222222" stroke-width="2" stroke-linecap="round"/>
<path fill-rule="evenodd" clip-rule="evenodd" d="M12.7437 22.5858C12.1579 23.1716 12.1579 24.1144 12.1579 26V50C12.1579 53.7712 12.1579 55.6569 13.3295 56.8284C14.501 58 16.3867 58 20.1579 58H55.8289C59.6002 58 61.4858 58 62.6574 56.8284C63.8289 55.6569 63.8289 53.7712 63.8289 50V26C63.8289 24.1144 63.8289 23.1716 63.2432 22.5858C62.6574 22 61.7146 22 59.8289 22H16.1579C14.2723 22 13.3295 22 12.7437 22.5858ZM29.875 38.5C29.875 37.9477 29.4273 37.5 28.875 37.5C28.3227 37.5 27.875 37.9477 27.875 38.5V44.9166C27.875 45.4689 28.3227 45.9166 28.875 45.9166C29.4273 45.9166 29.875 45.4689 29.875 44.9166V38.5ZM49.125 38.5C49.125 37.9477 48.6773 37.5 48.125 37.5C47.5727 37.5 47.125 37.9477 47.125 38.5V44.9166C47.125 45.4689 47.5727 45.9166 48.125 45.9166C48.6773 45.9166 49.125 45.4689 49.125 44.9166V38.5Z" fill="#222222"/>
</svg>
