<svg width="46" height="46" viewBox="0 0 46 46" fill="none" xmlns="http://www.w3.org/2000/svg">
<path fill-rule="evenodd" clip-rule="evenodd" d="M21.0834 34.5C28.4932 34.5 34.5 28.4932 34.5 21.0834C34.5 13.6735 28.4932 7.66669 21.0834 7.66669C13.6735 7.66669 7.66669 13.6735 7.66669 21.0834C7.66669 28.4932 13.6735 34.5 21.0834 34.5ZM21.0834 12.4167C19.9452 12.4167 18.8183 12.6409 17.7668 13.0764C16.7153 13.5119 15.7599 14.1503 14.9551 14.9551C14.1503 15.7599 13.5119 16.7153 13.0764 17.7668C12.6409 18.8183 12.4167 19.9452 12.4167 21.0834C12.4167 21.6356 12.8644 22.0834 13.4167 22.0834C13.969 22.0834 14.4167 21.6356 14.4167 21.0834C14.4167 20.2079 14.5891 19.341 14.9242 18.5321C15.2592 17.7233 15.7503 16.9884 16.3693 16.3693C16.9884 15.7503 17.7233 15.2592 18.5321 14.9242C19.341 14.5891 20.2079 14.4167 21.0834 14.4167C21.6356 14.4167 22.0834 13.969 22.0834 13.4167C22.0834 12.8644 21.6356 12.4167 21.0834 12.4167Z" fill="#222222"/>
<path d="M38.3333 38.3333L34.5 34.5" stroke="#222222" stroke-width="2" stroke-linecap="round"/>
</svg>
