<svg width="24" height="24" viewBox="0 0 24 24" fill="none" xmlns="http://www.w3.org/2000/svg">
<path d="M16.3 12C16.3 15.4794 13.4794 18.3 10 18.3C6.52061 18.3 3.7 15.4794 3.7 12C3.7 8.52061 6.52061 5.7 10 5.7C13.4794 5.7 16.3 8.52061 16.3 12Z" fill="#FF1B51" fill-opacity="0.99" stroke="black" stroke-width="0.6"/>
<path d="M16 5.0718C14.7838 4.36965 13.4043 4 12 4C10.5957 4 9.21615 4.36965 8 5.0718C6.78385 5.77394 5.77394 6.78385 5.0718 8C4.36965 9.21615 4 10.5957 4 12C4 13.4043 4.36965 14.7838 5.0718 16C5.77394 17.2162 6.78385 18.2261 8 18.9282C9.21615 19.6303 10.5957 20 12 20C13.4043 20 14.7838 19.6304 16 18.9282" stroke="white" stroke-width="1.2"/>
<path d="M22 12L22.4685 12.3748L22.7684 12L22.4685 11.6252L22 12ZM13 11.4C12.6686 11.4 12.4 11.6686 12.4 12C12.4 12.3314 12.6686 12.6 13 12.6V11.4ZM18.4685 17.3748L22.4685 12.3748L21.5315 11.6252L17.5315 16.6252L18.4685 17.3748ZM22.4685 11.6252L18.4685 6.62518L17.5315 7.37482L21.5315 12.3748L22.4685 11.6252ZM22 11.4H13V12.6H22V11.4Z" fill="#0075FF"/>
</svg>
