<svg width="42" height="42" viewBox="0 0 42 42" fill="none" xmlns="http://www.w3.org/2000/svg">
<path d="M17.7516 11.5982C19.1282 8.1665 19.8164 6.45062 21 6.45062C22.1836 6.45062 22.8719 8.1665 24.2484 11.5982L24.3125 11.758C25.0902 13.6968 25.479 14.6662 26.2715 15.2554C27.064 15.8446 28.1043 15.9378 30.1849 16.1241L30.5611 16.1578C33.9662 16.4628 35.6688 16.6152 36.0331 17.6985C36.3974 18.7817 35.133 19.932 32.6042 22.2327L31.7602 23.0006C30.4801 24.1652 29.84 24.7476 29.5417 25.5108C29.486 25.6532 29.4398 25.799 29.4032 25.9475C29.2071 26.7431 29.3945 27.5879 29.7694 29.2775L29.8861 29.8034C30.575 32.9085 30.9195 34.461 30.318 35.1307C30.0933 35.3809 29.8012 35.5611 29.4767 35.6496C28.6084 35.8866 27.3755 34.882 24.9099 32.8728C23.2908 31.5535 22.4813 30.8939 21.5519 30.7455C21.1863 30.6871 20.8137 30.6871 20.4481 30.7455C19.5187 30.8939 18.7092 31.5535 17.0901 32.8728C14.6245 34.882 13.3916 35.8866 12.5233 35.6496C12.1988 35.5611 11.9067 35.3809 11.682 35.1307C11.0805 34.461 11.425 32.9085 12.1139 29.8034L12.2306 29.2775C12.6055 27.5879 12.7929 26.7431 12.5968 25.9475C12.5602 25.799 12.514 25.6532 12.4583 25.5108C12.16 24.7476 11.5199 24.1652 10.2398 23.0006L9.3958 22.2327C6.86697 19.932 5.60256 18.7817 5.96687 17.6985C6.33118 16.6152 8.03377 16.4628 11.4389 16.1578L11.8151 16.1241C13.8957 15.9378 14.936 15.8446 15.7285 15.2554C16.521 14.6662 16.9098 13.6968 17.6875 11.758L17.7516 11.5982Z" fill="#FFD702" stroke="black" stroke-width="1.4"/>
</svg>
