<svg width="42" height="42" viewBox="0 0 42 42" fill="none" xmlns="http://www.w3.org/2000/svg">
<path d="M17.7516 11.5983C19.1282 8.16656 19.8164 6.45068 21 6.45068C22.1836 6.45068 22.8719 8.16656 24.2484 11.5983L24.3125 11.7581C25.0902 13.6969 25.479 14.6663 26.2715 15.2555C27.064 15.8447 28.1043 15.9378 30.1849 16.1242L30.5611 16.1579C33.9662 16.4628 35.6688 16.6153 36.0331 17.6985C36.3975 18.7817 35.133 19.9321 32.6042 22.2328L31.7602 23.0007C30.4801 24.1653 29.84 24.7476 29.5417 25.5109C29.486 25.6532 29.4398 25.7991 29.4032 25.9475C29.2071 26.7432 29.3945 27.588 29.7694 29.2775L29.8861 29.8034C30.575 32.9085 30.9195 34.4611 30.318 35.1307C30.0933 35.381 29.8012 35.5611 29.4767 35.6497C28.6084 35.8866 27.3755 34.882 24.9099 32.8729C23.2908 31.5536 22.4813 30.8939 21.5519 30.7455C21.1863 30.6872 20.8137 30.6872 20.4482 30.7455C19.5187 30.8939 18.7092 31.5536 17.0902 32.8729C14.6245 34.882 13.3917 35.8866 12.5233 35.6497C12.1988 35.5611 11.9067 35.381 11.682 35.1307C11.0805 34.4611 11.425 32.9085 12.1139 29.8034L12.2306 29.2775C12.6055 27.588 12.7929 26.7432 12.5968 25.9475C12.5602 25.7991 12.514 25.6532 12.4583 25.5109C12.16 24.7476 11.5199 24.1653 10.2398 23.0007L9.39581 22.2328C6.86698 19.9321 5.60257 18.7817 5.96688 17.6985C6.33119 16.6153 8.03378 16.4628 11.439 16.1579L11.8151 16.1242C13.8957 15.9378 14.936 15.8447 15.7285 15.2555C16.521 14.6663 16.9098 13.6969 17.6875 11.7581L17.7516 11.5983Z" stroke="#FFFF00" stroke-width="2"/>
</svg>
