<svg width="48" height="48" viewBox="0 0 48 48" fill="none" xmlns="http://www.w3.org/2000/svg">
<g clip-path="url(#clip0_17_45)">
<path d="M43.5012 32.905C43.5012 14.7917 28.4945 4.88455 15.4807 4.88455C15.0545 4.88455 14.6301 4.88455 14.2077 4.91335C12.8137 2.98599 11.0875 1.32227 9.11014 6.96182e-05C9.90695 1.79728 10.4293 3.704 10.6596 5.65639C9.42896 3.60044 7.49315 2.06176 5.21254 1.32679C6.35976 3.25988 7.1682 5.3748 7.60294 7.58023C6.0241 9.06504 4.97863 11.0288 4.62831 13.1677C4.278 15.3065 4.64237 17.5012 5.66505 19.4121C6.68773 21.323 8.31169 22.8436 10.2856 23.7386C12.2596 24.6335 14.4735 24.853 16.5847 24.3629C16.3883 28.2783 15.3708 32.1086 13.5982 35.6052C11.8255 39.1018 9.33746 42.1865 6.29542 44.6593C8.46341 45.9186 11.0299 46.3043 13.4723 45.7379C15.9147 45.1714 18.0493 43.6954 19.4417 41.6103C19.3957 43.1776 18.9729 44.7108 18.209 46.0801H18.3338C20.6075 46.0794 22.811 45.2924 24.5706 43.8523C26.3301 42.4123 27.5374 40.4079 27.9876 38.1793C28.3831 39.6291 28.4409 41.1503 28.1565 42.626C30.1132 41.9964 31.8242 40.7712 33.0504 39.1216C34.2766 37.472 34.9567 35.4804 34.9956 33.4253C36.6005 35.4672 37.7872 37.8054 38.4876 40.3063C39.188 42.8072 39.3885 45.4216 39.0775 48.0001C41.9675 43.4964 43.5005 38.2562 43.4935 32.905" fill="#1DA1F2"/>
<line x1="9.35355" y1="10.6464" x2="15.3536" y2="16.6464" stroke="black"/>
<line x1="9.64645" y1="16.6464" x2="15.6464" y2="10.6464" stroke="black"/>
</g>
<defs>
<clipPath id="clip0_17_45">
<rect width="48" height="48" fill="white"/>
</clipPath>
</defs>
</svg>
