<svg width="35" height="70" viewBox="0 0 35 70" fill="none" xmlns="http://www.w3.org/2000/svg">
<rect x="0.5" y="0.5" width="34" height="69" rx="17" fill="white" stroke="#5B5B5B"/>
<path d="M18 30L19.1226 33.4549H22.7553L19.8164 35.5902L20.9389 39.0451L18 36.9098L15.0611 39.0451L16.1836 35.5902L13.2447 33.4549H16.8774L18 30Z" fill="black"/>
<path d="M18 16L19.1226 19.4549H22.7553L19.8164 21.5902L20.9389 25.0451L18 22.9098L15.0611 25.0451L16.1836 21.5902L13.2447 19.4549H16.8774L18 16Z" fill="black"/>
<path d="M18 44L19.1226 47.4549H22.7553L19.8164 49.5902L20.9389 53.0451L18 50.9098L15.0611 53.0451L16.1836 49.5902L13.2447 47.4549H16.8774L18 44Z" fill="black"/>
</svg>
