<svg width="200" height="100" viewBox="0 0 200 100" fill="none" xmlns="http://www.w3.org/2000/svg">
<rect width="200" height="100" fill="#1D3046"/>
<path d="M95.6926 80.9675C96.1324 80.1043 97.4197 80.3082 97.5713 81.265L97.6581 81.8132C97.7259 82.2411 98.0615 82.5767 98.4894 82.6445L99.0376 82.7313C99.9944 82.8828 100.198 84.1702 99.3351 84.61L98.8406 84.862C98.4546 85.0586 98.2391 85.4815 98.3069 85.9094L98.3937 86.4576C98.5452 87.4144 97.3839 88.0061 96.6989 87.3211L96.3064 86.9287C96.0001 86.6223 95.5314 86.5481 95.1453 86.7448L94.6508 86.9968C93.7877 87.4366 92.866 86.5149 93.3058 85.6518L93.5578 85.1572C93.7545 84.7712 93.6802 84.3025 93.3739 83.9961L92.9814 83.6037C92.2964 82.9187 92.8882 81.7573 93.845 81.9089L94.3932 81.9957C94.8211 82.0635 95.2439 81.848 95.4406 81.462L95.6926 80.9675Z" fill="#FF3868"/>
<path d="M99.5498 79.2066L98.3117 83.3863L101.904 85.8555L97.5465 85.9696L96.3084 90.1493L94.8533 86.0401L90.4955 86.1542L93.9539 83.5005L92.4988 79.3912L96.0914 81.8604L99.5498 79.2066Z" fill="#DBFF00"/>
<path d="M37.235 73.3307C36.3038 73.0637 36.2583 71.761 37.1686 71.4297L37.6902 71.2399C38.0973 71.0917 38.3627 70.6983 38.3475 70.2653L38.3282 69.7106C38.2944 68.7425 39.5192 68.2967 40.1156 69.0601L40.4573 69.4974C40.724 69.8388 41.1802 69.9696 41.5873 69.8215L42.1089 69.6316C43.0192 69.3003 43.8216 70.3274 43.2799 71.1305L42.9696 71.5906C42.7273 71.9498 42.7439 72.4241 43.0106 72.7655L43.3523 73.2029C43.9487 73.9662 43.2198 75.0468 42.2886 74.7798L41.7551 74.6268C41.3387 74.5074 40.8927 74.6697 40.6504 75.0289L40.3401 75.489C39.7984 76.2921 38.5455 75.9329 38.5116 74.9647L38.4923 74.41C38.4772 73.9771 38.185 73.6031 37.7685 73.4837L37.235 73.3307Z" fill="#FF3868"/>
<path d="M34.7705 69.8804L39.1097 70.2982L40.8479 66.3005L41.7914 70.5564L46.1306 70.9742L42.3746 73.1867L43.3181 77.4427L40.0532 74.5541L36.2971 76.7666L38.0354 72.7689L34.7705 69.8804Z" fill="#DBFF00"/>
<path d="M51.2476 22.1534C50.511 21.5243 51.0098 20.3201 51.9755 20.3961L52.5289 20.4396C52.9607 20.4736 53.3654 20.2256 53.5312 19.8254L53.7436 19.3126C54.1143 18.4176 55.4137 18.5199 55.6398 19.4618L55.7694 20.0015C55.8705 20.4228 56.2314 20.731 56.6633 20.765L57.2166 20.8086C58.1824 20.8846 58.4866 22.152 57.6607 22.6581L57.1874 22.9481C56.8181 23.1745 56.6364 23.6129 56.7376 24.0342L56.8671 24.5739C57.0933 25.5158 55.9819 26.1969 55.2453 25.5677L54.8233 25.2073C54.4938 24.9259 54.0207 24.8887 53.6513 25.115L53.1781 25.405C52.3521 25.9112 51.361 25.0647 51.7317 24.1697L51.9441 23.6569C52.1099 23.2567 51.9991 22.7952 51.6697 22.5139L51.2476 22.1534Z" fill="#FF3868"/>
<path d="M50.4359 17.9917L54.2111 20.1714L57.4506 17.2545L56.5443 21.5185L60.3195 23.6981L55.9842 24.1538L55.0778 28.4177L53.3047 24.4354L48.9694 24.891L52.2089 21.9741L50.4359 17.9917Z" fill="#DBFF00"/>
<path d="M80.9256 13.9497C80.0043 13.6504 80.0043 12.347 80.9256 12.0476L81.4535 11.8761C81.8655 11.7422 82.1445 11.3583 82.1445 10.925L82.1445 10.37C82.1445 9.40128 83.3841 8.9985 83.9535 9.78222L84.2797 10.2312C84.5344 10.5817 84.9858 10.7284 85.3978 10.5945L85.9256 10.423C86.847 10.1237 87.6131 11.1781 87.0437 11.9618L86.7174 12.4109C86.4628 12.7614 86.4628 13.236 86.7174 13.5864L87.0437 14.0355C87.6131 14.8192 86.847 15.8737 85.9256 15.5743L85.3978 15.4028C84.9858 15.2689 84.5344 15.4156 84.2797 15.7661L83.9535 16.2151C83.3841 16.9988 82.1445 16.596 82.1445 15.6273L82.1445 15.0723C82.1445 14.6391 81.8655 14.2551 81.4535 14.1212L80.9256 13.9497Z" fill="#FF3868"/>
<path d="M78.5831 10.4155L82.905 10.9845L84.7817 7.04988L85.5761 11.3361L89.8981 11.9051L86.0671 13.9852L86.8615 18.2715L83.6994 15.2707L79.8685 17.3508L81.7452 13.4162L78.5831 10.4155Z" fill="#DBFF00"/>
<path d="M69.7431 57.8518C70.4742 57.2163 71.5914 57.8876 71.3735 58.8315L71.2486 59.3723C71.1512 59.7944 71.3366 60.2313 71.708 60.4544L72.1837 60.7402C73.0141 61.2392 72.7209 62.5092 71.7558 62.5936L71.2029 62.642C70.7714 62.6797 70.4132 62.9911 70.3157 63.4132L70.1909 63.954C69.9729 64.8979 68.6745 65.0115 68.296 64.1198L68.0791 63.6089C67.9098 63.2101 67.503 62.9657 67.0715 63.0034L66.5185 63.0518C65.5535 63.1362 65.0442 61.9364 65.7753 61.3009L66.1942 60.9368C66.5212 60.6526 66.6279 60.1901 66.4587 59.7913L66.2418 59.2804C65.8633 58.3887 66.847 57.5336 67.6773 58.0325L68.1531 58.3184C68.5244 58.5415 68.9972 58.5002 69.3242 58.2159L69.7431 57.8518Z" fill="#FF3868"/>
<path d="M73.979 57.6641L71.2653 61.0757L73.6713 64.7108L69.5882 63.1842L66.8745 66.5957L67.0646 62.2406L62.9814 60.714L67.1821 59.549L67.3723 55.1939L69.7783 58.829L73.979 57.6641Z" fill="#DBFF00"/>
<path d="M127.597 79.2454C127.297 78.3241 128.352 77.558 129.136 78.1274L129.585 78.4536C129.935 78.7083 130.41 78.7083 130.76 78.4536L131.209 78.1274C131.993 77.558 133.047 78.3241 132.748 79.2454L132.577 79.7733C132.443 80.1853 132.589 80.6367 132.94 80.8913L133.389 81.2176C134.173 81.787 133.77 83.0266 132.801 83.0266L132.246 83.0266C131.813 83.0266 131.429 83.3055 131.295 83.7176L131.123 84.2454C130.824 85.1667 129.521 85.1667 129.221 84.2454L129.05 83.7176C128.916 83.3055 128.532 83.0266 128.099 83.0266L127.544 83.0266C126.575 83.0266 126.172 81.787 126.956 81.2176L127.405 80.8913C127.755 80.6367 127.902 80.1853 127.768 79.7733L127.597 79.2454Z" fill="#FF3868"/>
<path d="M129.079 75.2729L131.159 79.1039L135.445 78.3095L132.445 81.4716L134.525 85.3026L130.59 83.4259L127.589 86.588L128.158 82.266L124.224 80.3893L128.51 79.5949L129.079 75.2729Z" fill="#DBFF00"/>
<path d="M14.9047 90.2009C14.0575 90.6705 13.1042 89.7816 13.5136 88.9037L13.7482 88.4006C13.9313 88.008 13.8407 87.5421 13.5239 87.2467L13.1179 86.8681C12.4095 86.2075 12.9603 85.0262 13.9218 85.1442L14.4727 85.2119C14.9027 85.2647 15.3178 85.0346 15.5009 84.6419L15.7354 84.1389C16.1448 83.261 17.4385 83.4198 17.6234 84.3707L17.7293 84.9156C17.8119 85.3408 18.159 85.6645 18.589 85.7173L19.1399 85.7849C20.1014 85.903 20.3501 87.1825 19.5029 87.6521L19.0174 87.9212C18.6385 88.1312 18.438 88.5613 18.5206 88.9866L18.6265 89.5314C18.8114 90.4824 17.6714 91.1143 16.9629 90.4536L16.557 90.0751C16.2401 89.7796 15.7691 89.7218 15.3902 89.9318L14.9047 90.2009Z" fill="#FF3868"/>
<path d="M10.7223 89.5038L14.086 86.731L12.4884 82.675L16.1649 85.0173L19.5286 82.2444L18.4371 86.4648L22.1137 88.8071L17.7626 89.0732L16.6711 93.2936L15.0734 89.2377L10.7223 89.5038Z" fill="#DBFF00"/>
<path d="M140.976 56.5054C140.01 56.5814 139.511 55.3772 140.248 54.748L140.67 54.3876C140.999 54.1062 141.11 53.6447 140.944 53.2445L140.732 52.7317C140.361 51.8367 141.352 50.9902 142.178 51.4964L142.651 51.7864C143.021 52.0127 143.494 51.9755 143.823 51.6941L144.245 51.3337C144.982 50.7045 146.093 51.3856 145.867 52.3275L145.738 52.8672C145.636 53.2885 145.818 53.7269 146.187 53.9533L146.661 54.2433C147.487 54.7495 147.182 56.0169 146.217 56.0929L145.663 56.1364C145.231 56.1704 144.871 56.4786 144.769 56.8999L144.64 57.4396C144.414 58.3815 143.114 58.4838 142.744 57.5888L142.531 57.076C142.365 56.6758 141.961 56.4278 141.529 56.4618L140.976 56.5054Z" fill="#FF3868"/>
<path d="M137.459 54.1366L141.67 53.0084L141.898 48.6551L144.272 52.3111L148.483 51.1828L145.739 54.5706L148.114 58.2266L144.044 56.6644L141.3 60.0521L141.529 55.6989L137.459 54.1366Z" fill="#DBFF00"/>
<path d="M182.976 86.5054C182.01 86.5814 181.511 85.3772 182.248 84.748L182.67 84.3876C182.999 84.1062 183.11 83.6447 182.944 83.2445L182.732 82.7317C182.361 81.8367 183.352 80.9902 184.178 81.4964L184.651 81.7864C185.021 82.0127 185.494 81.9755 185.823 81.6941L186.245 81.3337C186.982 80.7045 188.093 81.3856 187.867 82.3275L187.738 82.8672C187.636 83.2885 187.818 83.7269 188.187 83.9533L188.661 84.2433C189.487 84.7495 189.182 86.0169 188.217 86.0929L187.663 86.1364C187.231 86.1704 186.871 86.4786 186.769 86.8999L186.64 87.4396C186.414 88.3815 185.114 88.4838 184.744 87.5888L184.531 87.076C184.365 86.6758 183.961 86.4278 183.529 86.4618L182.976 86.5054Z" fill="#FF3868"/>
<path d="M179.459 84.1366L183.67 83.0084L183.898 78.6551L186.272 82.3111L190.483 81.1828L187.739 84.5706L190.114 88.2266L186.044 86.6644L183.3 90.0521L183.529 85.6989L179.459 84.1366Z" fill="#DBFF00"/>
<path d="M178.976 60.5054C178.01 60.5814 177.511 59.3772 178.248 58.748L178.67 58.3876C178.999 58.1062 179.11 57.6447 178.944 57.2445L178.732 56.7317C178.361 55.8367 179.352 54.9902 180.178 55.4964L180.651 55.7864C181.021 56.0127 181.494 55.9755 181.823 55.6941L182.245 55.3337C182.982 54.7045 184.093 55.3856 183.867 56.3275L183.738 56.8672C183.636 57.2885 183.818 57.7269 184.187 57.9533L184.661 58.2433C185.487 58.7495 185.182 60.0169 184.217 60.0929L183.663 60.1364C183.231 60.1704 182.871 60.4786 182.769 60.8999L182.64 61.4396C182.414 62.3815 181.114 62.4838 180.744 61.5888L180.531 61.076C180.365 60.6758 179.961 60.4278 179.529 60.4618L178.976 60.5054Z" fill="#FF3868"/>
<path d="M175.459 58.1366L179.67 57.0084L179.898 52.6551L182.272 56.3111L186.483 55.1828L183.739 58.5706L186.114 62.2266L182.044 60.6644L179.3 64.0521L179.529 59.6989L175.459 58.1366Z" fill="#DBFF00"/>
<path d="M180.976 19.5054C180.01 19.5814 179.511 18.3772 180.248 17.748L180.67 17.3876C180.999 17.1062 181.11 16.6447 180.944 16.2445L180.732 15.7317C180.361 14.8367 181.352 13.9902 182.178 14.4964L182.651 14.7864C183.021 15.0127 183.494 14.9755 183.823 14.6941L184.245 14.3337C184.982 13.7045 186.093 14.3856 185.867 15.3275L185.738 15.8672C185.636 16.2885 185.818 16.7269 186.187 16.9533L186.661 17.2433C187.487 17.7495 187.182 19.0169 186.217 19.0929L185.663 19.1364C185.231 19.1704 184.871 19.4786 184.769 19.8999L184.64 20.4396C184.414 21.3815 183.114 21.4838 182.744 20.5888L182.531 20.076C182.365 19.6758 181.961 19.4278 181.529 19.4618L180.976 19.5054Z" fill="#FF3868"/>
<path d="M177.459 17.1366L181.67 16.0084L181.898 11.6551L184.272 15.3111L188.483 14.1828L185.739 17.5706L188.114 21.2266L184.044 19.6644L181.3 23.0521L181.529 18.6989L177.459 17.1366Z" fill="#DBFF00"/>
<path d="M145.811 18.1572C144.948 18.597 144.027 17.6753 144.466 16.8122L144.718 16.3176C144.915 15.9316 144.841 15.4629 144.534 15.1565L144.142 14.7641C143.457 14.0791 144.049 12.9177 145.006 13.0693L145.554 13.1561C145.982 13.2239 146.404 13.0084 146.601 12.6224L146.853 12.1279C147.293 11.2647 148.58 11.4686 148.732 12.4254L148.819 12.9736C148.886 13.4015 149.222 13.7371 149.65 13.8049L150.198 13.8917C151.155 14.0433 151.359 15.3306 150.496 15.7704L150.001 16.0224C149.615 16.2191 149.4 16.6419 149.467 17.0698L149.554 17.618C149.706 18.5748 148.544 19.1666 147.859 18.4816L147.467 18.0891C147.161 17.7828 146.692 17.7085 146.306 17.9052L145.811 18.1572Z" fill="#FF3868"/>
<path d="M141.656 17.3145L145.114 14.6608L143.659 10.5516L147.252 13.0207L150.71 10.3669L149.472 14.5467L153.065 17.0158L148.707 17.1299L147.469 21.3097L146.014 17.2004L141.656 17.3145Z" fill="#DBFF00"/>
<path d="M122.03 30.9445C122.097 29.9781 123.362 29.6628 123.875 30.4843L124.169 30.955C124.399 31.3224 124.839 31.5002 125.259 31.3954L125.798 31.2611C126.738 31.0267 127.429 32.1321 126.806 32.8742L126.449 33.2994C126.171 33.6312 126.138 34.1047 126.367 34.4721L126.661 34.9428C127.175 35.7643 126.337 36.7627 125.439 36.3999L124.924 36.1919C124.522 36.0296 124.062 36.1445 123.783 36.4763L123.427 36.9015C122.804 37.6436 121.595 37.1553 121.663 36.189L121.702 35.6353C121.732 35.2031 121.48 34.8006 121.079 34.6383L120.564 34.4304C119.666 34.0675 119.757 32.7673 120.697 32.533L121.235 32.3987C121.656 32.2939 121.961 31.9303 121.991 31.4981L122.03 30.9445Z" fill="#FF3868"/>
<path d="M124.892 27.8164L125.386 32.1477L129.657 33.0168L125.691 34.8245L126.184 39.1558L123.239 35.9418L119.272 37.7495L121.419 33.9554L118.474 30.7415L122.746 31.6106L124.892 27.8164Z" fill="#DBFF00"/>
<path d="M58.5528 88.2557C58.2954 87.4637 59.2018 86.8052 59.8755 87.2946V87.2946C60.1768 87.5135 60.5847 87.5135 60.886 87.2946V87.2946C61.5597 86.8052 62.4661 87.4637 62.2087 88.2557V88.2557C62.0937 88.6098 62.2197 88.9978 62.521 89.2167V89.2167C63.1947 89.7061 62.8485 90.7717 62.0158 90.7717V90.7717C61.6434 90.7717 61.3133 91.0115 61.1983 91.3656V91.3656C60.9409 92.1576 59.8206 92.1576 59.5632 91.3656V91.3656C59.4482 91.0115 59.1181 90.7717 58.7457 90.7717V90.7717C57.913 90.7717 57.5668 89.7061 58.2405 89.2167V89.2167C58.5418 88.9978 58.6678 88.6098 58.5528 88.2557V88.2557Z" fill="#FF3868"/>
<path d="M59.5606 84.9554L61.1209 87.8291L64.3362 87.2332L62.0853 89.6052L63.6456 92.4789L60.6941 91.0712L58.4432 93.4432L58.87 90.2011L55.9185 88.7933L59.1338 88.1974L59.5606 84.9554Z" fill="#DBFF00"/>
<path d="M19.7245 17.4893C18.9962 17.893 18.1768 17.1289 18.5287 16.3742V16.3742C18.6861 16.0367 18.6082 15.6362 18.3359 15.3823V15.3823C17.7269 14.8144 18.2004 13.799 19.0269 13.9004V13.9004C19.3965 13.9458 19.7533 13.748 19.9107 13.4105V13.4105C20.2626 12.6559 21.3746 12.7924 21.5335 13.6098V13.6098C21.6045 13.9754 21.9029 14.2536 22.2725 14.299V14.299C23.099 14.4004 23.3128 15.5002 22.5845 15.9039V15.9039C22.2588 16.0845 22.0864 16.4542 22.1574 16.8197V16.8197C22.3163 17.6371 21.3364 18.1803 20.7274 17.6124V17.6124C20.4551 17.3584 20.0502 17.3087 19.7245 17.4893V17.4893Z" fill="#FF3868"/>
<path d="M16.2925 17.1296L18.8157 15.0496L17.6173 12.0072L20.3752 13.7641L22.8984 11.6842L22.0797 14.85L24.8376 16.607L21.5736 16.8066L20.7549 19.9725L19.5564 16.93L16.2925 17.1296Z" fill="#DBFF00"/>
<path d="M161.319 85.3543C160.488 85.4196 160.06 84.3845 160.693 83.8437V83.8437C160.976 83.6019 161.071 83.2052 160.929 82.8611V82.8611C160.61 82.0918 161.462 81.3642 162.172 81.7993V81.7993C162.49 81.9939 162.896 81.9619 163.179 81.72V81.72C163.813 81.1792 164.768 81.7646 164.573 82.5743V82.5743C164.487 82.9364 164.643 83.3133 164.96 83.5079V83.5079C165.67 83.943 165.409 85.0324 164.578 85.0977V85.0977C164.207 85.1269 163.897 85.3919 163.81 85.754V85.754C163.616 86.5637 162.499 86.6516 162.18 85.8823V85.8823C162.038 85.5382 161.69 85.3251 161.319 85.3543V85.3543Z" fill="#FF3868"/>
<path d="M158.345 83.6038L161.503 82.7575L161.674 79.4919L163.455 82.2344L166.614 81.3881L164.556 83.9293L166.337 86.6718L163.284 85.4999L161.226 88.0412L161.398 84.7757L158.345 83.6038Z" fill="#DBFF00"/>
<path d="M85.66 39.4668C84.918 39.8449 84.1258 39.0526 84.5038 38.3107V38.3107C84.6729 37.9789 84.6091 37.576 84.3458 37.3126V37.3126C83.757 36.7238 84.2656 35.7256 85.088 35.8558V35.8558C85.4558 35.9141 85.8193 35.7289 85.9884 35.3971V35.3971C86.3664 34.6552 87.473 34.8304 87.6033 35.6529V35.6529C87.6615 36.0207 87.95 36.3091 88.3178 36.3674V36.3674C89.1402 36.4976 89.3155 37.6042 88.5736 37.9823V37.9823C88.2418 38.1513 88.0566 38.5148 88.1148 38.8826V38.8826C88.2451 39.7051 87.2468 40.2137 86.658 39.6249V39.6249C86.3947 39.3616 85.9918 39.2978 85.66 39.4668V39.4668Z" fill="#FF3868"/>
<path d="M82.2427 38.9877L84.8369 36.997L83.7454 33.9146L86.4403 35.7667L89.0346 33.7761L88.1058 36.9114L90.8008 38.7636L87.5319 38.8492L86.6031 41.9846L85.5116 38.9021L82.2427 38.9877Z" fill="#DBFF00"/>
<path d="M109.66 16.4668C108.918 16.8449 108.126 16.0526 108.504 15.3107V15.3107C108.673 14.9789 108.609 14.576 108.346 14.3126V14.3126C107.757 13.7238 108.266 12.7256 109.088 12.8558V12.8558C109.456 12.9141 109.819 12.7289 109.988 12.3971V12.3971C110.366 11.6552 111.473 11.8304 111.603 12.6529V12.6529C111.662 13.0207 111.95 13.3091 112.318 13.3674V13.3674C113.14 13.4976 113.316 14.6042 112.574 14.9823V14.9823C112.242 15.1513 112.057 15.5148 112.115 15.8826V15.8826C112.245 16.7051 111.247 17.2137 110.658 16.6249V16.6249C110.395 16.3616 109.992 16.2978 109.66 16.4668V16.4668Z" fill="#FF3868"/>
<path d="M106.243 15.9877L108.837 13.997L107.745 10.9146L110.44 12.7667L113.035 10.7761L112.106 13.9114L114.801 15.7636L111.532 15.8492L110.603 18.9846L109.512 15.9021L106.243 15.9877Z" fill="#DBFF00"/>
<path d="M107.66 62.4668C106.918 62.8449 106.126 62.0526 106.504 61.3107V61.3107C106.673 60.9789 106.609 60.576 106.346 60.3126V60.3126C105.757 59.7238 106.266 58.7256 107.088 58.8558V58.8558C107.456 58.9141 107.819 58.7289 107.988 58.3971V58.3971C108.366 57.6552 109.473 57.8304 109.603 58.6529V58.6529C109.662 59.0207 109.95 59.3091 110.318 59.3674V59.3674C111.14 59.4976 111.316 60.6042 110.574 60.9823V60.9823C110.242 61.1513 110.057 61.5148 110.115 61.8826V61.8826C110.245 62.7051 109.247 63.2137 108.658 62.6249V62.6249C108.395 62.3616 107.992 62.2978 107.66 62.4668V62.4668Z" fill="#FF3868"/>
<path d="M104.243 61.9877L106.837 59.997L105.745 56.9146L108.44 58.7667L111.035 56.7761L110.106 59.9114L112.801 61.7636L109.532 61.8492L108.603 64.9846L107.512 61.9021L104.243 61.9877Z" fill="#DBFF00"/>
<path d="M38.6599 41.4668C37.918 41.8449 37.1258 41.0526 37.5038 40.3107V40.3107C37.6729 39.9789 37.6091 39.576 37.3457 39.3126V39.3126C36.7569 38.7238 37.2656 37.7256 38.088 37.8558V37.8558C38.4558 37.9141 38.8193 37.7289 38.9884 37.3971V37.3971C39.3664 36.6552 40.473 36.8304 40.6032 37.6529V37.6529C40.6615 38.0207 40.95 38.3091 41.3178 38.3674V38.3674C42.1402 38.4976 42.3155 39.6042 41.5735 39.9823V39.9823C41.2417 40.1513 41.0565 40.5148 41.1148 40.8826V40.8826C41.2451 41.7051 40.2468 42.2137 39.658 41.6249V41.6249C39.3947 41.3616 38.9917 41.2978 38.6599 41.4668V41.4668Z" fill="#FF3868"/>
<path d="M35.2427 40.9877L37.8369 38.997L36.7454 35.9146L39.4403 37.7667L42.0346 35.7761L41.1058 38.9114L43.8008 40.7636L40.5319 40.8492L39.6031 43.9846L38.5116 40.9021L35.2427 40.9877Z" fill="#DBFF00"/>
<path d="M167.66 36.4668C166.918 36.8449 166.126 36.0526 166.504 35.3107V35.3107C166.673 34.9789 166.609 34.576 166.346 34.3126V34.3126C165.757 33.7238 166.266 32.7256 167.088 32.8558V32.8558C167.456 32.9141 167.819 32.7289 167.988 32.3971V32.3971C168.366 31.6552 169.473 31.8304 169.603 32.6529V32.6529C169.662 33.0207 169.95 33.3091 170.318 33.3674V33.3674C171.14 33.4976 171.316 34.6042 170.574 34.9823V34.9823C170.242 35.1513 170.057 35.5148 170.115 35.8826V35.8826C170.245 36.7051 169.247 37.2137 168.658 36.6249V36.6249C168.395 36.3616 167.992 36.2978 167.66 36.4668V36.4668Z" fill="#FF3868"/>
<path d="M164.243 35.9877L166.837 33.997L165.745 30.9146L168.44 32.7667L171.035 30.7761L170.106 33.9114L172.801 35.7636L169.532 35.8492L168.603 38.9846L167.512 35.9021L164.243 35.9877Z" fill="#DBFF00"/>
<path d="M12.9999 53.5453C13.0579 52.7146 14.145 52.4436 14.5863 53.1497V53.1497C14.7836 53.4655 15.1619 53.6184 15.5232 53.5283V53.5283C16.3312 53.3268 16.9249 54.277 16.3896 54.9148V54.9148C16.1503 55.2001 16.1218 55.6071 16.3191 55.9229V55.9229C16.7604 56.629 16.0402 57.4873 15.2682 57.1754V57.1754C14.9229 57.0359 14.5271 57.1345 14.2877 57.4198V57.4198C13.7525 58.0577 12.7137 57.638 12.7718 56.8073V56.8073C12.7977 56.4358 12.5815 56.0899 12.2363 55.9504V55.9504C11.4642 55.6385 11.5424 54.5208 12.3503 54.3194V54.3194C12.7117 54.2293 12.9739 53.9168 12.9999 53.5453V53.5453Z" fill="#FF3868"/>
<path d="M15.1706 50.8628L15.5408 54.1118L18.7452 54.7638L15.7696 56.1198L16.1398 59.3688L13.9306 56.9579L10.955 58.314L12.5652 55.4679L10.356 53.057L13.5604 53.7089L15.1706 50.8628Z" fill="#DBFF00"/>
</svg>
