<svg width="1186" height="171" viewBox="0 0 1186 171" fill="none" xmlns="http://www.w3.org/2000/svg">
<rect y="18.8767" width="1186" height="152.123" fill="#5C3317"/>
<rect x="15" width="1154" height="18.8766" fill="white"/>
<path d="M290.125 98.6267C290.125 86.0434 290.312 76.3767 290.688 69.6267H290.625L281.688 68.3142C281.146 66.7725 280.729 65.0642 280.438 63.1892C280.146 61.3142 280 59.5017 280 57.7517C280 56.4184 280.104 54.96 280.312 53.3767C285.438 51.5434 292.5 50.1892 301.5 49.3142C310.5 48.4392 319.167 48.0017 327.5 48.0017C333.875 48.0017 339.354 48.5017 343.938 49.5017C348.521 50.5017 352.354 52.7725 355.438 56.3142C358.562 59.8142 360.125 65.0642 360.125 72.0642C360.125 75.5642 359.375 79.6475 357.875 84.3142C356.417 88.9392 354.542 93.46 352.25 97.8767C350 102.252 347.729 105.793 345.438 108.502C342.062 112.543 338.312 114.918 334.188 115.627C327.354 116.71 320.125 117.252 312.5 117.252C312.333 121.543 312.271 124.627 312.312 126.502L321.625 125.877C323.542 129.002 324.604 132.71 324.812 137.002C324.812 137.21 323.875 138.106 322 139.689C320.125 141.273 317.646 142.731 314.562 144.064C311.521 145.398 308.021 146.064 304.062 146.064C300.146 146.064 297.021 145.002 294.688 142.877C292.396 140.71 291.25 136.981 291.25 131.689C290.542 123.023 290.188 112.023 290.188 98.6892L290.125 98.6267ZM329.688 99.6892C330.771 95.1059 331.667 90.2517 332.375 85.1267C333.125 79.96 333.542 75.46 333.625 71.6267C333.417 71.2517 332.354 70.9184 330.438 70.6267C328.521 70.335 326.042 70.1892 323 70.1892C320.875 70.1892 318.229 70.2725 315.062 70.4392C314.688 83.0225 314.188 93.1267 313.562 100.752L329.688 99.6892ZM364.062 91.0017C363.354 87.96 362.896 85.7309 362.688 84.3142C362.479 82.8975 362.375 80.7517 362.375 77.8767C364.833 75.5434 367.479 73.7934 370.312 72.6267C373.146 71.4184 376.333 70.8142 379.875 70.8142C390.625 70.8142 396 76.21 396 87.0017C396 89.8767 395.729 93.21 395.188 97.0017C394.688 100.793 393.958 105.564 393 111.314C392.875 112.064 392.542 114.085 392 117.377C391.458 120.668 391.083 123.418 390.875 125.627C391.583 126.377 392.458 126.898 393.5 127.189C394 127.189 395.146 126.168 396.938 124.127C398.771 122.043 400.729 119.523 402.812 116.564C404.896 113.606 406.604 110.877 407.938 108.377C408.271 102.418 408.729 96.9392 409.312 91.9392L402.75 90.6267C402.208 88.5434 401.833 86.71 401.625 85.1267C401.417 83.5434 401.312 81.8559 401.312 80.0642L401.375 78.3142C402.875 76.3975 405.125 74.6684 408.125 73.1267C411.125 71.585 414.562 70.8142 418.438 70.8142C429.188 70.8142 434.562 76.21 434.562 87.0017C434.562 91.3767 433.833 97.1475 432.375 104.314C430.917 111.439 429.208 118.648 427.25 125.939L434.438 122.814C435.646 124.106 436.708 125.689 437.625 127.564C438.583 129.398 439.188 131.523 439.438 133.939C438.854 135.189 437.583 136.793 435.625 138.752C433.667 140.668 431.271 142.377 428.438 143.877C425.604 145.377 422.646 146.127 419.562 146.127C416.104 146.127 413.438 145.106 411.562 143.064C409.729 140.981 408.812 138.335 408.812 135.127C408.812 134.293 409.021 132.585 409.438 130.002C409.896 127.418 410.271 125.627 410.562 124.627L408.812 124.064C406.729 131.356 403.854 136.856 400.188 140.564C396.562 144.273 392.417 146.127 387.75 146.127C381.042 146.127 376.312 143.918 373.562 139.502C370.812 135.043 369.438 129.523 369.438 122.939C369.438 110.564 369.854 100.231 370.688 91.9392L364.062 91.0017ZM449.75 110.377C449.75 103.585 449.854 97.3975 450.062 91.8142L443.25 90.6267C442.708 88.5434 442.333 86.71 442.125 85.1267C441.917 83.5434 441.812 81.8559 441.812 80.0642L441.938 78.8142C442.062 78.2309 442.125 77.7517 442.125 77.3767L451.188 75.3767C451.396 72.7934 451.875 69.8767 452.625 66.6267C453.375 63.3767 454.167 60.9809 455 59.4392C456.333 58.4392 457.938 57.6892 459.812 57.1892C461.688 56.6892 463.708 56.4392 465.875 56.4392C467.708 56.4392 469.479 56.6267 471.188 57.0017C472.938 57.335 474.458 57.7934 475.75 58.3767C475.875 59.7934 475.938 61.4184 475.938 63.2517C475.938 66.2517 475.792 69.6475 475.5 73.4392L486.5 71.4392C488.042 74.1059 488.812 77.0017 488.812 80.1267C488.812 82.2934 488.542 84.2517 488 86.0017C487.5 87.7517 486.792 89.7309 485.875 91.9392C483.125 92.3975 479.354 92.6892 474.562 92.8142C473.979 99.6059 472.688 109.585 470.688 122.752L470.375 124.877L470.5 125.002L485.188 120.439C488.229 122.981 490.083 126.898 490.75 132.189C490.75 132.481 489.396 133.856 486.688 136.314C484.021 138.731 480.667 140.981 476.625 143.064C472.583 145.106 468.188 146.127 463.438 146.127C455.146 146.127 450.729 141.064 450.188 130.939C449.896 125.814 449.75 118.96 449.75 110.377ZM526.125 55.1892C526.125 51.5225 527.312 48.5434 529.688 46.2517C532.104 43.96 535.938 42.8142 541.188 42.8142C546.438 42.8142 550.25 43.96 552.625 46.2517C555.042 48.5434 556.25 51.5225 556.25 55.1892C556.25 57.2725 555.521 59.1892 554.062 60.9392C552.646 62.6892 550.771 64.085 548.438 65.1267C546.104 66.1267 543.688 66.6267 541.188 66.6267C538.479 66.6267 535.958 66.0434 533.625 64.8767C531.333 63.6684 529.5 62.1684 528.125 60.3767C526.792 58.585 526.125 56.8559 526.125 55.1892ZM523.062 90.9392C522.521 88.8975 522.146 87.0434 521.938 85.3767C521.729 83.6684 521.625 81.8975 521.625 80.0642L521.688 78.3142C522.562 77.1892 523.917 76.0642 525.75 74.9392C527.625 73.7725 529.792 72.7934 532.25 72.0017C534.75 71.21 537.333 70.8142 540 70.8142C545.833 70.8142 549.979 72.1267 552.438 74.7517C554.896 77.3767 556.125 81.46 556.125 87.0017C556.125 90.335 555.646 94.6892 554.688 100.064C553.771 105.439 552.646 110.668 551.312 115.752C550.021 120.793 548.896 124.398 547.938 126.564L548.062 126.689L557.312 123.314C558.979 124.731 560.229 126.293 561.062 128.002C561.938 129.71 562.5 131.689 562.75 133.939C562.75 134.231 561.833 135.439 560 137.564C558.167 139.648 555.729 141.606 552.688 143.439C549.688 145.231 546.208 146.127 542.25 146.127C538.25 146.127 535 145.043 532.5 142.877C530.042 140.71 528.812 137.002 528.812 131.752C528.812 125.627 528.979 119.127 529.312 112.252C529.646 105.377 530.167 98.71 530.875 92.2517L523.062 90.9392ZM574 123.127C574 116.335 574.083 111.21 574.25 107.752C574.417 104.252 574.854 99.1267 575.562 92.3767L568.312 91.4392C567.438 88.7309 566.854 86.3142 566.562 84.1892C566.312 82.0642 566.188 79.3142 566.188 75.9392C566.854 75.3559 567.958 74.6684 569.5 73.8767C571.083 73.0434 572.958 72.335 575.125 71.7517C577.292 71.1267 579.479 70.8142 581.688 70.8142C586.729 70.8142 590.292 71.8975 592.375 74.0642C594.5 76.2309 595.562 79.4809 595.562 83.8142C595.562 86.2309 595.208 89.5017 594.5 93.6267C593.333 100.252 592.75 103.731 592.75 104.064C592.75 104.273 592.896 104.481 593.188 104.689C593.479 104.856 593.792 104.939 594.125 104.939C594.5 104.939 594.75 104.793 594.875 104.502C596.542 97.8767 598.208 92.335 599.875 87.8767C601.542 83.4184 604.062 79.46 607.438 76.0017C610.812 72.5434 615.188 70.8142 620.562 70.8142C627.229 70.8142 632.021 72.8559 634.938 76.9392C637.854 80.9809 639.312 86.085 639.312 92.2517C639.312 97.7517 638.667 103.064 637.375 108.189C636.083 113.273 634.479 118.585 632.562 124.127C632.646 123.918 632.354 124.731 631.688 126.564L631.812 126.689L640.938 122.939C644.188 125.731 646.083 129.439 646.625 134.064C646.625 134.356 645.688 135.543 643.812 137.627C641.979 139.71 639.542 141.648 636.5 143.439C633.458 145.231 629.958 146.127 626 146.127C622.042 146.127 618.812 145.064 616.312 142.939C613.812 140.814 612.562 137.189 612.562 132.064C612.562 127.981 612.729 122.523 613.062 115.689C613.396 108.856 613.729 103.356 614.062 99.1892C612.979 98.0225 611.646 97.3975 610.062 97.3142C608.604 99.1892 606.458 102.939 603.625 108.564C600.792 114.189 598.792 118.398 597.625 121.189C597.542 121.773 597.5 122.335 597.5 122.877C597.5 124.96 597.812 127.773 598.438 131.314C599.062 134.814 599.833 138.085 600.75 141.127C600 142.543 598.458 143.731 596.125 144.689C593.792 145.648 590.917 146.127 587.5 146.127C584.417 146.127 581.938 145.877 580.062 145.377C578.229 144.877 576.938 144.356 576.188 143.814C575.438 143.231 575.062 142.877 575.062 142.752C575.021 142.377 574.917 141.398 574.75 139.814C574.583 138.189 574.417 135.939 574.25 133.064C574.083 130.148 574 126.835 574 123.127ZM685.562 123.127C685.562 116.335 685.646 111.21 685.812 107.752C685.979 104.252 686.417 99.1267 687.125 92.3767L679.938 91.4392C679.062 88.7309 678.479 86.3142 678.188 84.1892C677.938 82.0642 677.812 79.3142 677.812 75.9392C678.479 75.3559 679.583 74.6684 681.125 73.8767C682.708 73.0434 684.562 72.335 686.688 71.7517C688.854 71.1267 691.042 70.8142 693.25 70.8142C698.292 70.8142 701.854 71.8975 703.938 74.0642C706.062 76.2309 707.125 79.4809 707.125 83.8142C707.125 86.2309 706.771 89.5017 706.062 93.6267C704.896 100.252 704.312 103.731 704.312 104.064C704.312 104.273 704.458 104.481 704.75 104.689C705.042 104.856 705.354 104.939 705.688 104.939C706.062 104.939 706.312 104.793 706.438 104.502C706.396 104.668 706.875 102.564 707.875 98.1892C709.083 92.4392 710.312 87.7517 711.562 84.1267C712.854 80.5017 714.896 77.3975 717.688 74.8142C720.479 72.2309 724.271 70.9392 729.062 70.9392C734.979 70.9392 739.25 72.6475 741.875 76.0642C744.5 79.4392 745.812 83.9392 745.812 89.5642C745.812 94.0225 745.062 98.9809 743.562 104.439C743.562 104.648 743.708 104.856 744 105.064C744.292 105.231 744.604 105.314 744.938 105.314C745.312 105.314 745.562 105.168 745.688 104.877L746.562 101.377C748.062 95.21 749.542 90.085 751 86.0017C752.5 81.9184 754.729 78.3975 757.688 75.4392C760.688 72.4392 764.583 70.9392 769.375 70.9392C775.667 70.9392 780.188 72.96 782.938 77.0017C785.729 81.0434 787.125 86.1267 787.125 92.2517C787.125 96.585 786.708 100.939 785.875 105.314C785.083 109.689 784.229 113.356 783.312 116.314C782.438 119.273 781.354 122.689 780.062 126.564L780.188 126.689L789.438 122.814C792.688 125.606 794.583 129.314 795.125 133.939C795.125 134.231 794.188 135.439 792.312 137.564C790.438 139.648 787.958 141.606 784.875 143.439C781.833 145.231 778.333 146.127 774.375 146.127C770.417 146.127 767.188 145.064 764.688 142.939C762.188 140.814 760.938 137.189 760.938 132.064C760.938 126.356 761.042 120.502 761.25 114.502C761.5 108.46 761.854 103.043 762.312 98.2517C761.604 97.6684 760.625 97.3559 759.375 97.3142C758.125 98.5225 756.562 101.168 754.688 105.252C752.812 109.293 751.083 113.627 749.5 118.252C747.917 122.835 746.917 126.418 746.5 129.002C747.083 133.085 747.979 137.127 749.188 141.127C748.438 142.543 746.896 143.731 744.562 144.689C742.229 145.648 739.354 146.127 735.938 146.127C732.854 146.127 730.438 145.877 728.688 145.377C726.938 144.877 725.729 144.356 725.062 143.814C724.438 143.273 724.125 142.918 724.125 142.752C724.083 142.377 723.979 141.398 723.812 139.814C723.646 138.189 723.479 135.939 723.312 133.064C723.146 130.148 723.062 126.835 723.062 123.127C723.062 119.585 723.333 115.148 723.875 109.814C723.917 109.148 724.042 107.564 724.25 105.064C724.458 102.564 724.562 100.293 724.562 98.2517C723.854 97.6684 722.875 97.3559 721.625 97.3142C720.917 97.8559 718.938 101.314 715.688 107.689C712.438 114.064 710.271 118.564 709.188 121.189C709.104 121.773 709.062 122.335 709.062 122.877C709.062 124.96 709.375 127.773 710 131.314C710.625 134.814 711.396 138.085 712.312 141.127C711.562 142.543 710.021 143.731 707.688 144.689C705.354 145.648 702.479 146.127 699.062 146.127C695.979 146.127 693.5 145.877 691.625 145.377C689.792 144.877 688.5 144.356 687.75 143.814C687 143.231 686.625 142.877 686.625 142.752C686.583 142.377 686.479 141.398 686.312 139.814C686.146 138.189 685.979 135.939 685.812 133.064C685.646 130.148 685.562 126.835 685.562 123.127ZM799.125 108.564C799.125 101.356 800.333 94.9184 802.75 89.2517C805.167 83.585 808.896 79.1059 813.938 75.8142C819.021 72.4809 825.354 70.8142 832.938 70.8142C836.896 70.8142 840.854 71.2934 844.812 72.2517C848.771 73.1684 852.125 74.71 854.875 76.8767C857.417 78.9184 859.25 81.6267 860.375 85.0017C861.542 88.335 862.125 92.0434 862.125 96.1267C862.125 98.835 861.896 101.606 861.438 104.439C860.938 105.273 859.958 106.377 858.5 107.752C857.042 109.085 855.333 110.398 853.375 111.689C851.417 112.981 849.521 113.981 847.688 114.689C845.938 114.814 844.125 114.877 842.25 114.877C838.958 114.877 835.625 114.731 832.25 114.439C828.875 114.148 825.917 113.814 823.375 113.439C823.708 116.981 824.792 120.064 826.625 122.689C828.458 125.314 831.375 126.627 835.375 126.627C835.75 126.627 836.354 126.585 837.188 126.502C839.729 126.252 842.688 125.585 846.062 124.502C849.479 123.377 852.875 122.085 856.25 120.627C857.833 122.21 859 123.793 859.75 125.377C860.5 126.96 861.021 129.231 861.312 132.189C860.021 133.689 857.917 135.523 855 137.689C852.125 139.856 848.604 141.814 844.438 143.564C840.271 145.273 835.917 146.127 831.375 146.127C824.542 146.127 818.688 144.481 813.812 141.189C808.979 137.856 805.312 133.356 802.812 127.689C800.354 121.981 799.125 115.606 799.125 108.564ZM839.375 94.1892C838.792 93.5642 837.812 93.085 836.438 92.7517C835.062 92.3767 833.625 92.1892 832.125 92.1892C830.917 92.1892 829.688 92.2934 828.438 92.5017C827.229 92.71 826.5 92.9392 826.25 93.1892C824.833 95.9809 823.938 99.1475 823.562 102.689L840.25 101.064L839.375 94.1892ZM872.25 49.2517C874.417 47.7517 877.562 46.4184 881.688 45.2517C885.812 44.0434 889.729 43.4392 893.438 43.4392C896.562 43.4392 899.104 43.9184 901.062 44.8767C901.062 51.585 900.667 60.0017 899.875 70.1267C899.083 80.21 897.979 92.5017 896.562 107.002C895.688 108.502 894.312 109.71 892.438 110.627C890.604 111.502 888.646 111.939 886.562 111.939C884.979 111.939 883.458 111.668 882 111.127C880.542 110.585 879.271 109.773 878.188 108.689L872.25 49.2517ZM887.5 119.814C893 119.814 897 121.023 899.5 123.439C902.042 125.814 903.312 128.814 903.312 132.439C903.312 134.856 902.542 137.127 901 139.252C899.5 141.335 897.521 143.002 895.062 144.252C892.646 145.502 890.125 146.127 887.5 146.127C884.875 146.127 882.333 145.502 879.875 144.252C877.458 143.002 875.479 141.335 873.938 139.252C872.438 137.127 871.688 134.856 871.688 132.439C871.688 128.814 872.938 125.814 875.438 123.439C877.979 121.023 882 119.814 887.5 119.814Z" fill="white"/>
</svg>
